<svg class="img-fluid" viewBox="0 0 11603.23 2792" xmlns="http://www.w3.org/2000/svg" fill="#D7D3C6">
  <path d="M5659 2645c-79-80-144-151-144-158 0-15 552-22 575-7 12 8-15 39-136 161l-151 151zm262-20 110-110-222-3c-122-1-224 0-226 2-6 6 210 225 220 223 4-1 57-52 118-112z"/>
  <path d="m1728 2478-86-88h-312l-394-395c-216-217-398-395-404-395s-12 3-14 8c-2 4-38 41-81 82l-77 75-180-180C81 1486 0 1399 0 1391c0-19 340-361 359-361 9 0 52 36 96 80l80 80 400-400 399-400h309l86-85 85-85h3397l85 85 86 85h843l85-85 85-84 1700-1h1700l85 85 85 85h310l395 395c217 217 400 395 406 395s43-34 83-75 80-75 88-75c9 0 93 79 189 176 122 125 171 181 167 193-6 18-343 361-355 361-4 0-45-36-90-80s-85-80-88-80-183 178-399 395l-394 394-156 1-156 2-84 84-85 84H8096l-1700 1-86-86-85-85h-840l-85 85-86 86-1701 2-1700 2zm3497-24c25-25 45-50 45-55 0-6-712-9-1760-9-968 1-1760 4-1760 8 0 3 21 28 47 54l47 48h3335zm4585 0c28-26 50-51 50-55 0-5-782-9-1765-9s-1765 4-1765 9c0 4 22 29 50 55l49 46h3332zm-8210-98c0-2-205-209-456-460l-456-456-67 65-66 65 395 395 396 395h127c70 0 127-2 127-4zm3805-81 86-85h624l85 85 85 85h3620l484-484 483-484-486-486-486-486H8097l-1803 1-84 84-85 85h-639l-86-85-87-85H1705l-485 485-485 485 485 485 485 485h3614zm739 34-50-50-290 1h-289l-50 50-50 50h780zm4502-338c214-214 390-395 392-400 2-6-24-39-58-72l-63-61-461 461-461 461h262zM505 1530l139-140-138-135c-75-74-141-135-145-135-9 0-264 256-269 271-4 9 256 279 268 279 3 0 68-63 145-140zm10879 4c75-75 136-139 136-143 0-3-62-68-138-144l-137-137-140 140-140 140 140 140c77 77 141 140 141 140 1 0 63-61 138-136zM1147 888c249-249 453-457 453-461s-57-7-126-6l-127 2-394 395-395 394 63 64c35 35 66 64 69 64s209-204 457-452zm9841 389 62-62-398-397-397-396-122-1c-68-1-123 2-123 6 0 9 902 913 910 913 3 0 34-28 68-63zM6132 483c26-26 48-51 48-55s-171-7-380-8c-209 0-380 2-380 4 0 8 86 93 100 99 8 3 139 6 290 6l274 1zm-852-97c0-3-21-25-47-50l-48-46H1834l-49 50-49 50h1772c975 0 1772-2 1772-4zm4573-9c-4-8-26-30-48-51l-41-36H8092c-1574 0-1673 1-1693 18-11 9-31 32-45 50l-25 32h1766c1474 0 1765-2 1758-13z"/>
  <path d="M5514 299c-6-11 272-299 289-299 16 0 298 290 292 300-9 15-572 14-581-1zm526-22c0-1-53-55-118-120L5805 40l-120 120-120 120h238c130 0 237-1 237-3z"/>
</svg>
