<?xml version="1.0" encoding="UTF-8" standalone="no"?>
<!-- Created with Inkscape (http://www.inkscape.org/) -->

<svg
   width="18.008823mm"
   height="18.008823mm"
   viewBox="0 0 18.008823 18.008823"
   version="1.1"
   id="svg1995"
   inkscape:version="1.1.2 (b8e25be833, 2022-02-05)"
   sodipodi:docname="Token_Clue_RC3_bleed.svg"
   inkscape:export-filename="\\sena\Guillaume\DataShelter\Hobbies\ArkhamHorror\TokenClueDoom\Token_Clue_RC3.png"
   inkscape:export-xdpi="600"
   inkscape:export-ydpi="600"
   xmlns:inkscape="http://www.inkscape.org/namespaces/inkscape"
   xmlns:sodipodi="http://sodipodi.sourceforge.net/DTD/sodipodi-0.dtd"
   xmlns:xlink="http://www.w3.org/1999/xlink"
   xmlns="http://www.w3.org/2000/svg"
   xmlns:svg="http://www.w3.org/2000/svg">
  <sodipodi:namedview
     id="namedview1997"
     pagecolor="#ffffff"
     bordercolor="#666666"
     borderopacity="1.0"
     inkscape:pageshadow="2"
     inkscape:pageopacity="0.0"
     inkscape:pagecheckerboard="0"
     inkscape:document-units="mm"
     showgrid="false"
     fit-margin-top="0"
     fit-margin-left="0"
     fit-margin-right="0"
     fit-margin-bottom="0"
     inkscape:zoom="3.2301228"
     inkscape:cx="-11.29988"
     inkscape:cy="46.747449"
     inkscape:window-width="2560"
     inkscape:window-height="1377"
     inkscape:window-x="-8"
     inkscape:window-y="-8"
     inkscape:window-maximized="1"
     inkscape:current-layer="layer1" />
  <defs
     id="defs1992">
    <linearGradient
       inkscape:collect="always"
       id="linearGradient2871">
      <stop
         style="stop-color:#648939;stop-opacity:1"
         offset="0"
         id="stop2867" />
      <stop
         style="stop-color:#4b672b;stop-opacity:1"
         offset="0.5"
         id="stop3335" />
      <stop
         style="stop-color:#476328;stop-opacity:1"
         offset="1"
         id="stop2869" />
    </linearGradient>
    <filter
       inkscape:collect="always"
       style="color-interpolation-filters:sRGB"
       id="filter1965"
       x="-0.012385303"
       y="-0.015403248"
       width="1.0247385"
       height="1.0310634">
      <feGaussianBlur
         inkscape:collect="always"
         stdDeviation="0.39860817"
         id="feGaussianBlur1967" />
    </filter>
    <filter
       inkscape:collect="always"
       style="color-interpolation-filters:sRGB"
       id="filter7179"
       x="-0.049902032"
       y="-0.028032669"
       width="1.0998041"
       height="1.0560653">
      <feGaussianBlur
         inkscape:collect="always"
         stdDeviation="0.68670183"
         id="feGaussianBlur7181" />
    </filter>
    <filter
       inkscape:collect="always"
       style="color-interpolation-filters:sRGB"
       id="filter6964"
       x="-0.076532342"
       y="-0.079613019"
       width="1.1530647"
       height="1.159226">
      <feGaussianBlur
         inkscape:collect="always"
         stdDeviation="1.2500538"
         id="feGaussianBlur6966" />
    </filter>
    <radialGradient
       inkscape:collect="always"
       xlink:href="#linearGradient2871"
       id="radialGradient2873"
       cx="261.60449"
       cy="154.68945"
       fx="261.60449"
       fy="154.68945"
       r="60.47168"
       gradientTransform="matrix(1,0,0,1.0000161,0,-0.00249793)"
       gradientUnits="userSpaceOnUse" />
    <clipPath
       clipPathUnits="userSpaceOnUse"
       id="clipPath11644">
      <circle
         cy="-1572.2998"
         cx="-1402.3722"
         id="circle11646"
         style="fill:#00e874;fill-opacity:0.497207;stroke:#ff0000;stroke-width:0.00882356;stroke-linecap:round;paint-order:stroke markers fill;stop-color:#000000"
         r="9" />
    </clipPath>
  </defs>
  <g
     inkscape:label="Layer 1"
     inkscape:groupmode="layer"
     id="layer1"
     transform="translate(1411.3766,1581.3042)">
    <g
       id="g11587"
       clip-path="url(#clipPath11644)"
       inkscape:export-filename="\\sena\Guillaume\DataShelter\Hobbies\ArkhamHorror\TokenClueDoom\g11587.png"
       inkscape:export-xdpi="600"
       inkscape:export-ydpi="600">
      <rect
         style="vector-effect:non-scaling-stroke;fill:#ac9f76;fill-opacity:1;stroke:none;stroke-width:0.000254494;-inkscape-stroke:hairline"
         id="rect1630"
         width="30.413113"
         height="28.001244"
         x="-1417.5787"
         y="-1586.3004" />
      <path
         id="path2178"
         style="vector-effect:non-scaling-stroke;fill:url(#radialGradient2873);fill-opacity:1;stroke:none;stroke-width:0.00675019;stroke-opacity:1;-inkscape-stroke:hairline"
         inkscape:transform-center-x="4.102536e-05"
         inkscape:transform-center-y="-6.8308549e-05"
         d="m 261.60352,94.216797 a 60.472441,60.472441 0 0 0 -0.29493,0.01172 l -0.0664,48.210933 -2.91016,-48.099605 a 60.472441,60.472441 0 0 0 -0.67187,0.02539 l 2.84375,48.119145 -5.8086,-47.828129 a 60.472441,60.472441 0 0 0 -0.66797,0.07422 l 5.74219,47.841799 -8.6875,-47.394534 a 60.472441,60.472441 0 0 0 -0.66015,0.125 l 8.61914,47.402344 -11.53711,-46.798828 a 60.472441,60.472441 0 0 0 -0.64844,0.173828 l 11.4668,46.80273 -14.34571,-46.031246 a 60.472441,60.472441 0 0 0 -0.63867,0.207032 l 14.27734,46.042964 -17.08984,-45.058589 a 60.472441,60.472441 0 0 0 -0.63477,0.222656 l 17.03126,45.097653 -19.7754,-43.93359 a 60.472441,60.472441 0 0 0 -0.61523,0.267578 l 19.71484,43.970702 -22.39257,-42.66211 a 60.472441,60.472441 0 0 0 -0.5918,0.3125 l 22.33008,42.69141 -24.9336,-41.24415 a 60.472441,60.472441 0 0 0 -0.57031,0.35743 l 24.86914,41.26953 -27.39258,-39.6836 a 60.472441,60.472441 0 0 0 -0.54297,0.39649 L 254.34766,144.8125 224.625,106.875 a 60.472441,60.472441 0 0 0 -0.54102,0.40039 l 29.68164,37.99414 -31.95117,-36.0625 a 60.472441,60.472441 0 0 0 -0.50976,0.4375 l 31.90625,36.11524 -34.06836,-34.06836 a 60.472441,60.472441 0 0 0 -0.47656,0.47656 l 34.01953,34.11523 -36.07227,-31.95508 a 60.472441,60.472441 0 0 0 -0.4375,0.50977 l 36.01953,32 -37.95508,-29.73437 a 60.472441,60.472441 0 0 0 -0.39843,0.54101 l 37.89648,29.77539 -39.66601,-27.3789 a 60.472441,60.472441 0 0 0 -0.40039,0.54101 l 39.64453,27.44727 -41.23438,-24.92578 a 60.472441,60.472441 0 0 0 -0.35742,0.56836 l 41.20898,24.99023 -42.66211,-22.38867 a 60.472441,60.472441 0 0 0 -0.3125,0.59179 l 42.63086,22.45118 -43.94336,-19.77539 a 60.472441,60.472441 0 0 0 -0.26953,0.61523 l 43.90821,19.83594 -45.07813,-17.09375 a 60.472441,60.472441 0 0 0 -0.2207,0.63281 L 250.02148,150.68359 204,136.34375 a 60.472441,60.472441 0 0 0 -0.21289,0.63867 l 46.01367,14.4082 -46.78516,-11.52929 a 60.472441,60.472441 0 0 0 -0.17382,0.64844 l 46.78125,11.59961 -47.39063,-8.6836 a 60.472441,60.472441 0 0 0 -0.125,0.66016 l 47.38281,8.75195 -47.83593,-5.80664 a 60.472441,60.472441 0 0 0 -0.0742,0.66602 l 47.82031,5.875 -48.11719,-2.91016 a 60.472441,60.472441 0 0 0 -0.0254,0.67187 l 48.09766,2.97657 -48.20899,0.002 a 60.472441,60.472441 0 0 0 -0.0137,0.37695 60.472441,60.472441 0 0 0 0.0117,0.29493 l 48.20899,0.0664 -48.09961,2.91016 a 60.472441,60.472441 0 0 0 0.0254,0.67383 l 48.11914,-2.84375 -47.82813,5.80859 a 60.472441,60.472441 0 0 0 0.0742,0.66797 l 47.8418,-5.74219 -47.39453,8.6875 a 60.472441,60.472441 0 0 0 0.125,0.66016 l 47.40234,-8.61914 -46.79883,11.53515 a 60.472441,60.472441 0 0 0 0.17383,0.65039 l 46.80274,-11.46679 -46.03126,14.3457 a 60.472441,60.472441 0 0 0 0.20704,0.63867 l 46.04296,-14.27734 -45.05859,17.08984 a 60.472441,60.472441 0 0 0 0.22266,0.63477 l 45.09961,-17.03321 -43.93555,19.77539 a 60.472441,60.472441 0 0 0 0.26953,0.61524 l 43.96875,-19.71484 -42.66211,22.39257 a 60.472441,60.472441 0 0 0 0.31446,0.59375 l 42.6914,-22.33008 -41.24414,24.9336 a 60.472441,60.472441 0 0 0 0.35742,0.56836 l 41.26953,-24.86914 -39.68359,27.39453 a 60.472441,60.472441 0 0 0 0.39648,0.54297 l 39.70704,-27.32617 -37.9375,29.72265 a 60.472441,60.472441 0 0 0 0.39843,0.54102 l 37.99414,-29.68164 -36.0625,31.95117 a 60.472441,60.472441 0 0 0 0.4375,0.50976 l 36.11719,-31.90625 -34.06836,34.07032 a 60.472441,60.472441 0 0 0 0.47461,0.47461 l 34.11524,-34.02149 -31.95704,36.07227 a 60.472441,60.472441 0 0 0 0.51172,0.43945 l 32,-36.01953 -29.73437,37.95508 a 60.472441,60.472441 0 0 0 0.54101,0.39843 l 29.77539,-37.89648 -27.3789,39.66602 a 60.472441,60.472441 0 0 0 0.54101,0.40039 l 27.44727,-39.64649 -24.92578,41.23438 a 60.472441,60.472441 0 0 0 0.56836,0.35742 l 24.99023,-41.20703 -22.38867,42.66015 a 60.472441,60.472441 0 0 0 0.59375,0.31446 l 22.45117,-42.63086 -19.77539,43.94336 a 60.472441,60.472441 0 0 0 0.61328,0.26953 l 19.83594,-43.9082 -17.09375,45.07812 a 60.472441,60.472441 0 0 0 0.63477,0.22266 l 17.15234,-45.03907 -14.33984,46.02344 a 60.472441,60.472441 0 0 0 0.63476,0.21289 l 14.41016,-46.01562 -11.53125,46.78711 a 60.472441,60.472441 0 0 0 0.65039,0.17382 l 11.59961,-46.7832 -8.6836,47.39063 a 60.472441,60.472441 0 0 0 0.66016,0.125 l 8.75195,-47.38086 -5.80664,47.83398 a 60.472441,60.472441 0 0 0 0.66797,0.0742 l 5.87305,-47.81836 -2.91016,48.11524 a 60.472441,60.472441 0 0 0 0.67383,0.0254 l 2.97656,-48.09571 0.002,48.20899 a 60.472441,60.472441 0 0 0 0.375,0.0137 60.472441,60.472441 0 0 0 0.29687,-0.0117 l 0.0664,-48.21094 2.91015,48.09961 a 60.472441,60.472441 0 0 0 0.67188,-0.0254 l -2.84375,-48.11719 5.80859,47.82618 a 60.472441,60.472441 0 0 0 0.66797,-0.0742 l -5.74219,-47.8418 8.6875,47.39453 a 60.472441,60.472441 0 0 0 0.66016,-0.125 l -8.61914,-47.40234 11.53711,46.80078 a 60.472441,60.472441 0 0 0 0.64844,-0.17383 l -11.4668,-46.80273 14.3457,46.03125 a 60.472441,60.472441 0 0 0 0.63867,-0.20703 l -14.27734,-46.04493 17.08984,45.06055 a 60.472441,60.472441 0 0 0 0.63477,-0.22266 l -17.03125,-45.09961 19.77539,43.93555 a 60.472441,60.472441 0 0 0 0.61523,-0.26953 l -19.71484,-43.96875 22.39258,42.66211 a 60.472441,60.472441 0 0 0 0.5918,-0.31445 l -22.33008,-42.69141 24.93359,41.24414 a 60.472441,60.472441 0 0 0 0.57031,-0.35742 l -24.86914,-41.26953 27.39258,39.68359 a 60.472441,60.472441 0 0 0 0.54297,-0.39648 l -27.32617,-39.70703 29.72265,37.9375 a 60.472441,60.472441 0 0 0 0.54297,-0.40039 l -29.68164,-37.99414 31.95117,36.0625 a 60.472441,60.472441 0 0 0 0.50782,-0.43555 l -31.90625,-36.11719 34.07031,34.06836 a 60.472441,60.472441 0 0 0 0.47656,-0.47656 l -34.02148,-34.11524 36.07226,31.95703 a 60.472441,60.472441 0 0 0 0.4375,-0.50976 l -36.01953,-32 37.95508,29.73437 a 60.472441,60.472441 0 0 0 0.40039,-0.54101 l -37.89844,-29.77735 39.66797,27.37891 a 60.472441,60.472441 0 0 0 0.39844,-0.53906 l -39.64453,-27.44727 41.23242,24.92578 a 60.472441,60.472441 0 0 0 0.35938,-0.57031 l -41.20899,-24.99023 42.66211,22.38867 a 60.472441,60.472441 0 0 0 0.3125,-0.5918 l -42.63086,-22.45117 43.94336,19.77539 a 60.472441,60.472441 0 0 0 0.26953,-0.61523 l -43.9082,-19.83594 45.07812,17.09375 a 60.472441,60.472441 0 0 0 0.22266,-0.63281 l -45.03711,-17.15235 46.02148,14.33985 a 60.472441,60.472441 0 0 0 0.2129,-0.63868 l -46.01368,-14.4082 46.78516,11.5293 a 60.472441,60.472441 0 0 0 0.17383,-0.64844 l -46.78125,-11.59961 47.39062,8.68359 a 60.472441,60.472441 0 0 0 0.125,-0.6582 l -47.38281,-8.75195 47.83594,5.80664 a 60.472441,60.472441 0 0 0 0.0762,-0.66797 l -47.82227,-5.875 48.11719,2.91016 a 60.472441,60.472441 0 0 0 0.0254,-0.67188 l -48.09765,-2.97656 48.20898,-0.002 a 60.472441,60.472441 0 0 0 0.0137,-0.37696 60.472441,60.472441 0 0 0 -0.004,-0.29492 l -48.2168,-0.0664 48.13086,-2.9121 a 60.472441,60.472441 0 0 0 -0.043,-0.66993 l -48.13281,2.84375 47.86523,-5.8125 a 60.472441,60.472441 0 0 0 -0.0781,-0.66992 l -47.875,5.7461 47.42773,-8.69336 A 60.472441,60.472441 0 0 0 321.0293,143.5 l -47.43946,8.625 46.81641,-11.54102 a 60.472441,60.472441 0 0 0 -0.16211,-0.65039 l -46.83203,11.47266 46.0332,-14.3457 A 60.472441,60.472441 0 0 0 319.25,136.41797 l -46.05664,14.28125 45.08398,-17.09961 a 60.472441,60.472441 0 0 0 -0.23828,-0.62695 l -45.10937,17.03515 43.9707,-19.79101 a 60.472441,60.472441 0 0 0 -0.27734,-0.61133 l -43.9961,19.72656 42.69336,-22.4082 a 60.472441,60.472441 0 0 0 -0.30859,-0.59766 l -42.72852,22.34961 41.26563,-24.94726 a 60.472441,60.472441 0 0 0 -0.34961,-0.57227 l -41.29883,24.88672 39.68164,-27.39258 a 60.472441,60.472441 0 0 0 -0.38086,-0.55273 l -39.7207,27.33593 37.95508,-29.73828 a 60.472441,60.472441 0 0 0 -0.41016,-0.53125 l -38,29.68555 36.0918,-31.97656 a 60.472441,60.472441 0 0 0 -0.44727,-0.5 l -36.13476,31.92187 34.09375,-34.09375 a 60.472441,60.472441 0 0 0 -0.47657,-0.47656 l -34.14062,34.04687 31.97266,-36.08984 a 60.472441,60.472441 0 0 0 -0.50196,-0.45117 l -32.02539,36.04883 29.73828,-37.95899 a 60.472441,60.472441 0 0 0 -0.53125,-0.41015 l -29.78906,37.91406 27.39062,-39.6836 a 60.472441,60.472441 0 0 0 -0.55468,-0.38281 l -27.44532,39.64453 24.94336,-41.26367 a 60.472441,60.472441 0 0 0 -0.57226,-0.34961 l -25.00391,41.23047 22.40821,-42.69922 a 60.472441,60.472441 0 0 0 -0.59766,-0.30859 l -22.4668,42.66211 19.78711,-43.968752 a 60.472441,60.472441 0 0 0 -0.61133,-0.277344 l -19.84961,43.941406 17.09571,-45.082031 a 60.472441,60.472441 0 0 0 -0.62696,-0.242187 l -17.1621,45.062498 14.3457,-46.037108 a 60.472441,60.472441 0 0 0 -0.64258,-0.197265 l -14.4082,46.013673 11.53711,-46.816408 a 60.472441,60.472441 0 0 0 -0.65039,-0.162109 L 264.18555,142.70898 272.875,95.28125 a 60.472441,60.472441 0 0 0 -0.66016,-0.123047 l -8.75781,47.416017 5.81055,-47.867189 a 60.472441,60.472441 0 0 0 -0.66602,-0.07813 l -5.8789,47.855469 2.91015,-48.126953 a 60.472441,60.472441 0 0 0 -0.67187,-0.04492 l -2.97852,48.126953 -0.002,-48.216797 a 60.472441,60.472441 0 0 0 -0.37695,-0.0059 z"
         transform="matrix(0.26458333,0,0,0.26458333,-1471.5885,-1615.6853)" />
      <path
         id="path4668-6-0"
         style="fill:#476328;fill-opacity:1;stroke:#476328;stroke-width:18.7729;stroke-miterlimit:4;stroke-dasharray:none;stroke-opacity:1;paint-order:stroke markers fill;filter:url(#filter1965)"
         d="m 1389.9961,1191.5527 c -16.9096,-0.072 -32.5845,2.592 -46.918,7.4727 -4.0953,1.3945 -8.0811,2.9705 -11.9551,4.7148 -44.5504,20.0603 -74.3019,62.4586 -85.5234,108.8243 -1.7265,5.5724 -3.237,10.6098 -4.8066,15.5527 -52.651,142.8474 -60.6644,247.5912 -40.7188,324.3672 0,0 0,0 0,0 50.9731,196.2035 284.5346,209.7456 422.2774,209.7461 98.4121,1e-4 225.4443,14.6009 310.5976,-51.7246 5.1608,-4.0197 10.1684,-8.3372 15.0059,-12.9726 55.6305,-53.308 88.8408,-148.7392 75.7637,-318.6348 0,0 0,0 0,0 -3.4116,-44.3209 -9.972,-93.708 -20.1075,-148.7382 -0.6344,-2.9221 -1.3919,-5.7473 -2.1797,-8.629 -0.7878,-2.8816 -1.6075,-5.8198 -2.3691,-8.9667 -11.2209,-46.3657 -40.9729,-88.764 -85.5234,-108.8243 -3.874,-1.7443 -7.8598,-3.3203 -11.9551,-4.7148 -14.3336,-4.8807 -30.0064,-7.5442 -46.916,-7.4727 -3.08,0.01 -6.1217,0.1026 -9.1231,0.2911 -3.0013,0.1884 -5.9626,0.4693 -8.8847,0.8417 -2.9222,0.3725 -5.8041,0.836 -8.6465,1.3946 -2.8425,0.5585 -5.646,1.2123 -8.4082,1.959 -2.7623,0.7466 -5.4846,1.5866 -8.166,2.5234 -2.6815,0.9368 -5.3217,1.9688 -7.9219,3.0977 -2.6002,1.1289 -5.1594,2.3547 -7.6778,3.6777 -2.5183,1.323 -4.9955,2.7445 -7.4316,4.2637 -2.1154,1.3418 -4.2844,2.8132 -6.4727,4.4043 -2.1882,1.591 -4.3969,3.3004 -6.5937,5.1171 -2.1968,1.8168 -4.3805,3.741 -6.5215,5.7598 -2.141,2.0189 -4.2389,4.1326 -6.2598,6.3301 -8.0833,8.7899 -14.9472,18.9158 -18.5351,29.623 -2.2965,6.9468 -3.7829,14.3693 -4.5078,21.9434 -0.145,1.5148 -0.2592,3.0342 -0.3438,4.5586 -0.2538,4.573 -0.2374,9.1786 0.037,13.7441 0.092,1.5219 0.2108,3.0382 0.3594,4.5489 0.2972,3.0219 0.7081,6.0148 1.2285,8.9609 0.2602,1.4727 0.5486,2.9329 0.8633,4.3789 0.9442,4.3379 2.1324,8.545 3.5527,12.5488 3.7251,10.4224 10.001,20.053 18.5801,28.543 l 3.4102,4.0879 -13.0391,-0.6719 c -6.1537,-0.3173 -11.9005,-0.3406 -17.291,-0.059 -2.6952,0.1411 -5.3022,0.3578 -7.8262,0.6524 -2.524,0.2946 -4.9642,0.6665 -7.33,1.1172 -2.3659,0.4506 -4.6563,0.9806 -6.877,1.5898 -2.2207,0.6092 -4.3723,1.2981 -6.4609,2.0684 -2.0887,0.7702 -4.1144,1.6209 -6.084,2.5546 -1.9696,0.9337 -3.8825,1.9512 -5.7461,3.0508 -2.1792,1.2859 -4.3107,2.7093 -6.3789,4.2539 -2.0682,1.5446 -4.0742,3.21 -6.0039,4.9766 -8.6839,7.9497 -15.8256,17.9613 -20.1758,28.3594 -0.4834,1.1553 -0.933,2.3159 -1.3457,3.4785 -0.8254,2.3252 -1.5053,4.6597 -2.0274,6.9863 -1.768,7.88 -1.0482,23.3893 1.0547,31.2461 0.8811,3.0792 2.158,6.3052 3.7715,9.541 0.5379,1.0786 1.1124,2.1567 1.7227,3.2324 1.2207,2.152 2.5809,4.2876 4.0644,6.3672 0.7416,1.0396 1.514,2.0641 2.3145,3.0703 7.2045,9.0566 16.706,16.5614 26.8652,18.8164 2.5688,0.3683 4.9615,0.5596 7.2813,0.5899 2.3197,0.03 4.5665,-0.1004 6.8418,-0.377 8.7911,-1.1016 17.8153,-4.213 24.6933,-11.164 4.6817,-4.5787 7.847,-11.5561 7.0449,-19.1211 0.025,-0.3505 -0.01,-0.6358 -0.1035,-0.8574 -0.093,-0.2216 -0.2449,-0.3794 -0.4492,-0.4786 -0.4086,-0.1982 -1.0308,-0.1578 -1.8379,0.096 -4.3086,1.4723 -9.1367,2.6029 -13.9961,2.4101 -1.3035,0 -2.3828,-0.028 -3.3203,-0.1094 -0.9375,-0.081 -1.7345,-0.2152 -2.4746,-0.4257 -0.7401,-0.2106 -1.4234,-0.4987 -2.1348,-0.8868 -0.7113,-0.3881 -1.4494,-0.8764 -2.3008,-1.4902 -5.3238,-3.8387 -8.7137,-10.9312 -8.7402,-18.2832 -0.01,-1.1934 0.018,-2.1903 0.1172,-3.0898 0.099,-0.8996 0.27,-1.7025 0.5449,-2.5118 0.2749,-0.8092 0.6545,-1.6243 1.1719,-2.5468 0.5174,-0.9226 1.1731,-1.9519 2,-3.1914 3.8366,-5.566 9.5471,-9.6422 17.2793,-10.4571 13.7591,-1.3164 21.7706,3.9017 27.7812,13.8457 1.0018,1.6574 1.9476,3.446 2.8555,5.3574 0.908,1.9115 1.7781,3.947 2.627,6.0957 0.6352,2.191 1.2145,4.3809 1.7226,6.5821 0.5082,2.2011 0.9434,4.4123 1.2891,6.6445 0.3457,2.2322 0.6021,4.4854 0.75,6.7695 0.1478,2.2841 0.1888,4.6002 0.1035,6.9571 -0.4933,10.7176 -1.8032,21.1159 -3.9551,31.1777 -3.2277,15.0927 -8.3523,29.4276 -15.4609,42.9512 -1.1848,2.2539 -2.4233,4.4848 -3.7188,6.6933 -6.4773,11.0427 -14.3433,21.5161 -23.6504,31.3848 -2.9944,3.1004 -6.2029,6.2861 -9.5996,9.4961 -3.3966,3.21 -6.9817,6.4435 -10.7304,9.6367 -16.8693,14.3695 -37.0492,27.9283 -58.252,34.918 -2.3558,0.7766 -4.7255,1.4735 -7.1035,2.0801 -2.378,0.6065 -4.7644,1.1243 -7.1582,1.5449 -2.3938,0.4206 -4.7939,0.744 -7.1973,0.9629 -2.4034,-0.2189 -4.8034,-0.5423 -7.1972,-0.9629 -2.3939,-0.4206 -4.7822,-0.9384 -7.1602,-1.5449 -2.378,-0.6066 -4.7457,-1.3035 -7.1016,-2.0801 -25.9146,-8.5429 -50.3026,-26.8996 -68.9843,-44.5547 -3.3967,-3.21 -6.6033,-6.3957 -9.5977,-9.4961 -29.7827,-31.5799 -44.8118,-69.3365 -46.7851,-112.207 -0.085,-2.3569 -0.046,-4.673 0.1015,-6.9571 0.1479,-2.2841 0.4044,-4.5373 0.75,-6.7695 0.3456,-2.2322 0.781,-4.4434 1.2891,-6.6445 0.508,-2.2012 1.0893,-4.3911 1.7246,-6.5821 0.8488,-2.1487 1.7171,-4.1842 2.625,-6.0957 0.9079,-1.9115 1.8557,-3.6999 2.8574,-5.3574 6.0101,-9.9446 14.0202,-15.164 27.7793,-13.8476 7.7325,0.8149 13.4443,4.893 17.2813,10.459 0.8268,1.2395 1.4801,2.2688 1.9961,3.1914 0.5159,0.9225 0.8942,1.7376 1.1679,2.5468 0.2737,0.8093 0.4428,1.6122 0.543,2.5118 0.1001,0.8995 0.1317,1.8964 0.1269,3.0898 -0.038,7.352 -3.4163,14.4445 -8.7402,18.2832 -0.8512,0.6138 -1.5914,1.1021 -2.3027,1.4902 -0.7113,0.3881 -1.3947,0.6762 -2.1348,0.8868 -0.7401,0.2105 -1.5371,0.3445 -2.4746,0.4257 -0.9375,0.081 -2.0147,0.1094 -3.3184,0.1094 -1.2148,0.048 -2.4275,0.014 -3.6308,-0.088 -2.4067,-0.2038 -4.7761,-0.6768 -7.0449,-1.2969 -1.1345,-0.31 -2.2433,-0.6573 -3.3204,-1.0253 -0.8073,-0.2536 -1.4313,-0.294 -1.8398,-0.096 -0.2043,0.099 -0.354,0.257 -0.4473,0.4786 -0.093,0.2216 -0.1287,0.5069 -0.1035,0.8574 -0.8016,7.565 2.3636,14.5425 7.0449,19.1211 6.878,6.951 15.9018,10.0624 24.6934,11.164 1.1375,0.1383 2.2664,0.2393 3.4023,0.3028 0,0 0,0 0,0 3.4078,0.1905 6.8656,0.037 10.7188,-0.5157 18.0608,-4.009 34.0388,-24.6052 38.7382,-41.0273 1.5772,-5.8926 2.3767,-16.0899 1.9317,-24.1445 -0.1484,-2.6849 -0.4349,-5.1316 -0.877,-7.1016 -4.1764,-18.613 -18.4985,-37.7679 -35.9316,-48.0547 -1.8636,-1.0997 -3.7785,-2.1151 -5.7481,-3.0488 -1.9695,-0.9337 -3.9953,-1.7864 -6.084,-2.5566 -2.0799,-0.7671 -4.2226,-1.4533 -6.4335,-2.0606 -0.01,0 -0.017,-0.01 -0.025,-0.01 0,0 0,0 0,0 -2.1909,-0.601 -4.4492,-1.1217 -6.7812,-1.5684 -0.066,-0.013 -0.1316,-0.025 -0.1973,-0.037 -2.334,-0.4419 -4.7407,-0.8112 -7.2285,-1.1015 -2.524,-0.2946 -5.1309,-0.5113 -7.8262,-0.6524 -2.6952,-0.141 -5.4779,-0.2054 -8.3574,-0.1953 0,0 0,0 0,0 -2.8789,0.01 -5.8535,0.095 -8.9297,0.2539 l -13.039,0.6719 3.4101,-4.0879 c 8.5792,-8.49 14.8554,-18.1206 18.5801,-28.543 7.5753,-21.3537 8.5384,-48.4539 1.1895,-70.6836 -3.5879,-10.7072 -10.4539,-20.8331 -18.5371,-29.623 -2.0209,-2.1975 -4.1169,-4.3112 -6.2578,-6.3301 -2.141,-2.0188 -4.3267,-3.943 -6.5235,-5.7598 -2.1968,-1.8167 -4.4055,-3.5261 -6.5937,-5.1171 -2.1883,-1.5911 -4.3553,-3.0625 -6.4707,-4.4043 -2.4361,-1.5192 -4.9133,-2.9407 -7.4317,-4.2637 -2.5184,-1.3231 -5.0795,-2.5488 -7.6797,-3.6777 -2.6002,-1.1289 -5.2404,-2.1609 -7.9218,-3.0977 -2.6815,-0.9368 -5.4038,-1.7768 -8.1661,-2.5234 -2.7622,-0.7467 -5.5638,-1.4005 -8.4062,-1.959 -2.8425,-0.5586 -5.7263,-1.0221 -8.6484,-1.3946 -2.9222,-0.3724 -5.8835,-0.6533 -8.8848,-0.8417 -3.0013,-0.1885 -6.0411,-0.2847 -9.1211,-0.2911 z m 13.6269,78.4317 c 0.751,-0.01 1.5725,3e-4 2.4883,0.012 9.2388,0.1845 16.8523,3.7052 22.4297,9.0703 1.1155,1.073 2.1483,2.2212 3.0977,3.4297 0.9493,1.2085 1.8151,2.4788 2.5918,3.7988 0.7766,1.3201 1.4651,2.69 2.0625,4.0977 6.2721,14.7794 2.4828,33.7298 -15.168,43.0136 -0.7643,0.3769 -1.6038,0.6961 -2.5078,0.959 -6.3281,1.8403 -15.8197,0.9037 -24.8438,-2.5937 -2.0175,-0.7819 -3.5141,-1.5511 -4.6523,-2.2383 -1.1382,-0.6872 -1.9187,-1.2933 -2.5059,-1.748 -1.1743,-0.9096 -1.574,-1.2157 -2.5136,-0.3692 -0.3921,0.5229 -0.7142,1.1038 -0.9727,1.7344 -1.2927,3.1532 -0.9946,7.5398 0.1231,12.0195 0.447,1.7919 1.0259,3.5989 1.6855,5.3477 1.9837,5.624 5.7761,10.934 9.7813,15.0566 1.335,1.3742 2.6947,2.6177 4.0175,3.6953 5.8216,4.2068 10.6659,6.8064 16.7657,8.6758 2.0126,0.6145 4.0454,1.138 6.0937,1.5899 6.145,1.3555 12.4174,2.0523 18.6055,2.5156 0,0.353 -3.4427,2.8833 -7.6504,5.623 -1.3941,0.9077 -2.8936,1.9959 -4.461,3.2285 -9.4042,7.3958 -21.2866,19.9619 -27.9609,29.5704 -1.1124,1.6014 -2.0798,3.122 -2.8672,4.5214 -0.9365,1.6643 -2.8396,4.8416 -4.2305,7.0606 -1.5172,2.421 -2.2175,3.5031 -2.9433,5.0781 -0.7259,1.575 -1.4773,3.6428 -3.0996,8.0352 -2.3732,6.4254 -4.1156,13.0882 -5.2559,20.1718 -0.5701,3.5419 -0.9907,7.1881 -1.2636,10.9629 -0.273,3.7749 -0.3978,7.6789 -0.3809,11.7325 0.045,10.5982 0.7676,23.433 1.7793,32.9277 0.3372,3.1649 0.7066,5.9601 1.0937,8.1758 0.412,2.3577 0.5249,4.2871 0.252,4.2871 -0.3377,0 -1.6318,-1.812 -3.3828,-4.5664 -1.7511,-2.7544 -3.9592,-6.4522 -6.125,-10.2227 -2.1659,-3.7705 -4.2889,-7.6138 -5.8711,-10.6621 -0.7911,-1.5242 -1.4464,-2.8495 -1.9043,-3.8672 -0.458,-1.0177 -0.7188,-1.7275 -0.7188,-2.0215 0,-0.6613 -2.625,-7.0022 -5.75,-13.8925 -0.9713,-2.8866 -1.9255,-6.0015 -2.8554,-9.3067 -5.5799,-19.8312 -10.2462,-46.5537 -11.9844,-72.4258 -0.2897,-4.312 -0.4995,-8.5992 -0.6172,-12.8281 -0.7058,-25.3729 3.7585,-55.6095 13.9141,-78.9531 0,0 0,0 0,0 0.8461,-1.9447 1.7327,-3.8413 2.6582,-5.6836 0,0 0,0 0,0 2.7771,-5.5284 5.9117,-10.5631 9.414,-14.9238 2.4676,-2.4878 4.933,-4.9654 7.459,-7.2872 2.526,-2.3217 5.1127,-4.4889 7.8281,-6.3554 1.3577,-0.9333 2.7482,-1.7915 4.1778,-2.5567 4.2888,-2.2956 8.937,-3.7522 14.1679,-3.8847 z m 437.418,0 c 5.2309,0.1325 9.8792,1.5911 14.168,3.8867 1.4296,0.7652 2.82,1.6234 4.1777,2.5566 2.7154,1.8665 5.3021,4.0318 7.8281,6.3535 2.526,2.3218 4.9914,4.7994 7.459,7.2872 18.6792,23.2574 26.9278,65.7331 25.9864,99.5644 -0.1177,4.2289 -0.3276,8.5161 -0.6172,12.8281 -1.738,25.8721 -6.4045,52.5946 -11.9844,72.4258 -0.93,3.3052 -1.8841,6.4201 -2.8555,9.3067 -3.1253,6.8903 -5.75,13.2312 -5.75,13.8925 0,0.294 -0.2608,1.0038 -0.7187,2.0215 -0.458,1.0177 -1.1132,2.343 -1.9043,3.8672 -1.5822,3.0483 -3.7073,6.8916 -5.8731,10.6621 -2.1658,3.7705 -4.372,7.4683 -6.123,10.2227 -1.751,2.7544 -3.0451,4.5664 -3.3828,4.5664 -0.2759,0 -0.16,-1.9294 0.2519,-4.2871 0.387,-2.2157 0.7565,-5.009 1.0938,-8.1739 1.0119,-9.4947 1.7353,-22.3314 1.7793,-32.9296 0.051,-12.16 -1.1868,-22.9646 -3.8106,-33.0274 0,0 0,0 0,0 -0.8747,-3.3545 -1.9032,-6.6252 -3.0898,-9.8379 -1.6222,-4.3924 -2.3738,-6.4602 -3.0996,-8.0352 -0.7259,-1.575 -1.4263,-2.6571 -2.9434,-5.0781 -1.3909,-2.219 -3.2939,-5.3963 -4.2305,-7.0606 -0.7874,-1.3994 -1.7548,-2.9181 -2.8671,-4.5195 0,0 0,0 0,0 -3.337,-4.804 -7.9769,-10.3465 -12.9571,-15.6133 0,0 0,0 0,0 -4.9806,-5.2672 -10.3017,-10.2572 -15.0039,-13.9551 -1.5674,-1.2326 -3.0668,-2.3208 -4.4609,-3.2285 -4.2074,-2.7397 -7.6504,-5.2696 -7.6504,-5.623 6.1871,-0.4633 12.459,-1.1598 18.6035,-2.5156 0.01,0 0.016,0 0.023,-0.01 2.0404,-0.4509 4.0674,-0.9738 6.0723,-1.5859 6.0998,-1.8695 10.944,-4.4691 16.7656,-8.6758 1.3228,-1.0777 2.6826,-2.3193 4.0176,-3.6934 4.0051,-4.1221 7.7979,-9.4326 9.7813,-15.0566 0.6597,-1.7488 1.2384,-3.5558 1.6855,-5.3477 1.1177,-4.4797 1.4156,-8.8663 0.1231,-12.0195 -0.2586,-0.6306 -0.5807,-1.2115 -0.9727,-1.7344 -0.9396,-0.8465 -1.3393,-0.5404 -2.5137,0.3692 -0.5871,0.4547 -1.3676,1.0608 -2.5058,1.748 -1.1382,0.6872 -2.635,1.4564 -4.6524,2.2383 -9.0244,3.4974 -18.5156,4.434 -24.8437,2.5937 -0.904,-0.2629 -1.7435,-0.5821 -2.5078,-0.959 -3.3096,-1.7407 -6.1303,-3.8212 -8.4903,-6.1503 -0.7866,-0.7764 -1.5222,-1.58 -2.207,-2.4082 -8.2182,-9.9393 -9.1748,-23.3706 -4.4707,-34.4551 0.5974,-1.4077 1.2858,-2.7776 2.0625,-4.0977 0.7767,-1.32 1.6424,-2.5903 2.5918,-3.7988 0.9493,-1.2085 1.9822,-2.3547 3.0976,-3.4277 5.5775,-5.3652 13.1909,-8.8878 22.4297,-9.0723 0.9158,-0.011 1.7377,-0.019 2.4883,-0.012 z"
         transform="matrix(0.02058915,0,0,0.02058915,-1435.775,-1598.511)" />
      <path
         id="path4668-6-0-2"
         style="fill:#e5d7a7;fill-opacity:1;stroke:none;stroke-width:0.285356;stroke-miterlimit:4;stroke-dasharray:none;stroke-opacity:1;paint-order:stroke markers fill"
         d="m -1407.1562,-1573.978 c -1.5916,-0.01 -2.6516,1.1634 -2.973,2.4915 -0.035,0.1147 -0.067,0.2185 -0.099,0.3202 -3.8544,10.4573 3.9102,10.9971 7.856,10.9971 3.9296,0 10.0758,1.1307 7.8498,-10.955 -0.026,-0.1203 -0.062,-0.2327 -0.094,-0.3623 -0.3214,-1.3281 -1.3813,-2.4982 -2.9729,-2.4915 -0.5074,0 -0.963,0.1214 -1.3642,0.3716 -0.3485,0.2211 -0.7661,0.614 -0.9138,1.0549 -0.1513,0.4576 -0.1316,1.0156 0.025,1.4552 0.077,0.2147 0.2059,0.413 0.3825,0.5877 l 0.07,0.084 -0.2684,-0.014 c -0.5069,-0.026 -0.8794,0.045 -1.1864,0.226 -0.3588,0.2117 -0.6537,0.6061 -0.7397,0.9894 -0.036,0.1622 -0.022,0.4815 0.022,0.6433 0.097,0.3382 0.4258,0.7622 0.7976,0.8447 0.1057,0.016 0.1971,0.016 0.2908,0 0.181,-0.023 0.3668,-0.086 0.5084,-0.2299 0.096,-0.095 0.1616,-0.238 0.145,-0.3938 0,-0.029 -0.016,-0.035 -0.049,-0.025 -0.089,0.03 -0.1882,0.054 -0.2883,0.05 -0.1073,0 -0.1404,-0.01 -0.2106,-0.06 -0.1096,-0.079 -0.1794,-0.2251 -0.1799,-0.3764 -8e-4,-0.098 0.01,-0.1314 0.079,-0.2335 0.079,-0.1146 0.1966,-0.1985 0.3558,-0.2153 0.3777,-0.036 0.545,0.167 0.6848,0.5209 0.052,0.1804 0.086,0.3609 0.079,0.5549 -0.041,0.8827 -0.3501,1.66 -0.9632,2.3103 -0.4933,0.5106 -1.268,1.1352 -2.0598,1.2073 -0.7918,-0.072 -1.5665,-0.6967 -2.0598,-1.2073 -0.6132,-0.6503 -0.9226,-1.4276 -0.9632,-2.3103 -0.01,-0.194 0.027,-0.3745 0.079,-0.5549 0.1397,-0.3539 0.3071,-0.557 0.6848,-0.521 0.1592,0.017 0.2767,0.1011 0.3557,0.2154 0.068,0.1021 0.079,0.1352 0.079,0.2335 -7e-4,0.1513 -0.07,0.2974 -0.1799,0.3764 -0.07,0.051 -0.1032,0.06 -0.2106,0.06 -0.1001,0 -0.1996,-0.02 -0.2882,-0.05 -0.033,-0.01 -0.051,0 -0.049,0.025 -0.017,0.1558 0.049,0.2995 0.145,0.3938 0.1416,0.1431 0.3274,0.2072 0.5084,0.2299 0.094,0.011 0.185,0.01 0.2908,0 0.3718,-0.082 0.7008,-0.5066 0.7976,-0.8448 0.044,-0.1618 0.058,-0.4811 0.022,-0.6433 -0.085,-0.3833 -0.3809,-0.7777 -0.7398,-0.9894 -0.3069,-0.1812 -0.6794,-0.2522 -1.1863,-0.226 l -0.2684,0.014 0.07,-0.084 c 0.1766,-0.1747 0.3059,-0.373 0.3825,-0.5876 0.156,-0.4397 0.1758,-0.9977 0.025,-1.4553 -0.1478,-0.4409 -0.5654,-0.8338 -0.9139,-1.0549 -0.4012,-0.2502 -0.8568,-0.3706 -1.3642,-0.3716 z m 0.2806,1.6149 c 0.016,-2e-4 0.032,0 0.051,2e-4 0.3043,0.01 0.523,0.1881 0.6214,0.4199 0.1291,0.3043 0.051,0.6945 -0.3123,0.8856 -0.1259,0.062 -0.3508,0.049 -0.5632,-0.033 -0.1661,-0.065 -0.1603,-0.1246 -0.1991,-0.09 -0.065,0.086 -0.037,0.2492 0.017,0.3932 0.054,0.1544 0.1751,0.2973 0.2841,0.3861 0.1198,0.087 0.2196,0.1401 0.3452,0.1786 0.1657,0.051 0.3387,0.072 0.5085,0.084 0,0.01 -0.071,0.059 -0.1575,0.1157 -0.2296,0.1495 -0.5969,0.5379 -0.7265,0.7684 -0.02,0.034 -0.058,0.1001 -0.088,0.1454 -0.063,0.1 -0.057,0.089 -0.1244,0.27 -0.098,0.2645 -0.1435,0.5487 -0.1422,0.8825 0,0.291 0.027,0.6639 0.059,0.8464 0.01,0.049 0.01,0.089 0,0.089 -0.028,0 -0.3706,-0.5968 -0.3706,-0.6453 0,-0.014 -0.054,-0.1441 -0.1184,-0.286 -0.1601,-0.4754 -0.2988,-1.2503 -0.3182,-1.9469 -0.02,-0.6966 0.1503,-1.5711 0.5349,-2.0499 0.2033,-0.2049 0.4054,-0.4063 0.6926,-0.4135 z m 9.006,0 c 0.2873,0.01 0.4893,0.2086 0.6925,0.4134 0.3846,0.4789 0.5544,1.3534 0.535,2.05 -0.019,0.6966 -0.1582,1.4715 -0.3183,1.9469 -0.065,0.1419 -0.1183,0.2725 -0.1183,0.286 0,0.049 -0.3429,0.6453 -0.3707,0.6453 -0.01,0 0,-0.04 0,-0.088 0.032,-0.1825 0.058,-0.5554 0.059,-0.8464 0,-0.3338 -0.045,-0.618 -0.1421,-0.8825 -0.067,-0.1809 -0.062,-0.1703 -0.1244,-0.27 -0.028,-0.046 -0.068,-0.1111 -0.088,-0.1454 -0.1296,-0.2305 -0.4969,-0.6188 -0.7264,-0.7684 -0.087,-0.056 -0.1576,-0.1085 -0.1576,-0.1157 0.1699,-0.013 0.3428,-0.034 0.5085,-0.084 0.1257,-0.039 0.2254,-0.092 0.3452,-0.1786 0.109,-0.089 0.2297,-0.2317 0.2842,-0.3861 0.054,-0.144 0.081,-0.3072 0.017,-0.3933 -0.039,-0.035 -0.033,0.025 -0.1992,0.09 -0.2123,0.082 -0.4373,0.096 -0.5632,0.033 -0.3633,-0.1911 -0.4414,-0.5813 -0.3123,-0.8856 0.098,-0.2319 0.3171,-0.4139 0.6215,-0.4199 0.019,-2e-4 0.035,-5e-4 0.051,-2e-4 z"
         sodipodi:nodetypes="cccccscccccccsscccccccscccccccccccccsccccccccscccccccccscscccccsssscssscscccccscssccsscscccccscsccc" />
      <path
         id="path2479-4"
         style="fill:#577c00;fill-opacity:1;stroke:#476328;stroke-width:4.502;stroke-linecap:round;stroke-miterlimit:4;stroke-dasharray:none;stroke-opacity:1;paint-order:stroke markers fill;filter:url(#filter7179);stop-color:#000000"
         d="m 259.78087,77.54806 a 0.697817,0.697817 0 0 0 -0.70201,0.68859 l -0.11927,10.37393 -10.08675,2.42343 a 0.697817,0.697817 0 0 0 -0.27878,1.21929 l 8.03782,6.5599 -4.39343,9.3965 a 0.697817,0.697817 0 0 0 0.77927,0.97744 l 10.13712,-2.19337 4.6084,9.29574 a 0.697817,0.697817 0 0 0 1.24952,0 l 4.60838,-9.29574 10.13881,2.19337 a 0.697817,0.697817 0 0 0 0.77927,-0.97744 l -4.39343,-9.3965 8.03615,-6.5599 a 0.697817,0.697817 0 0 0 -0.27879,-1.21929 l -10.08507,-2.42343 -0.12095,-10.37393 a 0.697817,0.697817 0 0 0 -1.12525,-0.54246 l -8.18392,6.37517 -8.18393,-6.37517 a 0.697817,0.697817 0 0 0 -0.42323,-0.14613 z m 8.60712,-20.61214 a 39.067208,39.067208 0 0 0 -39.06738,39.06686 39.067208,39.067208 0 0 0 34.95912,38.85034 c -0.15439,2.87414 -0.79669,3.53209 -3.07322,3.53209 v 57.64144 h 14.36296 v -57.64144 c -2.2764,0 -2.91944,-0.65785 -3.07372,-3.53157 a 39.067208,39.067208 0 0 0 34.95964,-38.85086 39.067208,39.067208 0 0 0 -39.0674,-39.06686 z m 29.66693,39.06699 A 29.666916,29.666916 0 0 1 268.38801,125.66983 29.666916,29.666916 0 0 1 238.72109,96.00291 29.666916,29.666916 0 0 1 268.38801,66.336 29.666916,29.666916 0 0 1 298.05492,96.00291 Z"
         transform="matrix(0.07781725,0,0,0.07781725,-1423.2574,-1582.2275)" />
      <path
         id="path6658"
         style="opacity:0.921687;mix-blend-mode:darken;vector-effect:non-scaling-stroke;fill:#504000;fill-opacity:1;stroke-width:0.000952644;-inkscape-stroke:hairline;filter:url(#filter6964)"
         d="m -1400.8162,-1578.0829 a 7.2399983,7.2399983 0 0 1 -7.24,7.24 7.2399983,7.2399983 0 0 1 -7.24,-7.24 7.2399983,7.2399983 0 0 1 7.24,-7.24 7.2399983,7.2399983 0 0 1 7.24,7.24 z m -26.8404,-18.8419 v 37.6839 h 39.2008 v -37.6839 z"
         transform="matrix(1.0420093,0,0,1.0420093,64.835412,72.077179)" />
      <path
         id="path8263"
         style="fill:#e5d7a7;fill-opacity:1;stroke:none;stroke-width:0.0468393;stroke-linecap:round;paint-order:stroke markers fill;stop-color:#000000"
         d="m -1400.0637,-1574.7568 a 2.308598,2.308598 0 0 1 -2.3085,2.3085 2.308598,2.308598 0 0 1 -2.3086,-2.3085 2.308598,2.308598 0 0 1 2.3086,-2.3087 2.308598,2.308598 0 0 1 2.3085,2.3087 z m -2.3085,-3.0402 a 3.0401029,3.0401029 0 0 0 -3.0401,3.0401 3.0401029,3.0401029 0 0 0 2.7204,3.0232 c -0.012,0.2237 -0.062,0.2749 -0.2392,0.2749 v 4.4855 h 1.1177 v -4.4855 c -0.1772,0 -0.2272,-0.051 -0.2392,-0.2749 a 3.0401029,3.0401029 0 0 0 2.7205,-3.0232 3.0401029,3.0401029 0 0 0 -3.0401,-3.0401 z m -0.6698,1.604 a 0.0543022,0.0543022 0 0 0 -0.054,0.054 l -0.011,0.8072 -0.7849,0.1886 a 0.0543022,0.0543022 0 0 0 -0.022,0.095 l 0.6255,0.5105 -0.3418,0.7313 a 0.0543022,0.0543022 0 0 0 0.06,0.076 l 0.7888,-0.1707 0.3587,0.7233 a 0.0543022,0.0543022 0 0 0 0.097,0 l 0.3585,-0.7233 0.789,0.1707 a 0.0543022,0.0543022 0 0 0 0.061,-0.076 l -0.3419,-0.7313 0.6253,-0.5105 a 0.0543022,0.0543022 0 0 0 -0.022,-0.095 l -0.7847,-0.1886 -0.01,-0.8072 a 0.0543022,0.0543022 0 0 0 -0.088,-0.043 l -0.6369,0.4961 -0.6368,-0.4961 a 0.0543022,0.0543022 0 0 0 -0.033,-0.011 z" />
    </g>
  </g>
</svg>
