<?xml version="1.0" encoding="UTF-8" standalone="no"?>
<svg
   version="1.0"
   width="1280.000000pt"
   height="1275.000000pt"
   viewBox="0 0 1280.000000 1275.000000"
   preserveAspectRatio="xMidYMid meet"
   id="svg6"
   sodipodi:docname="sealed.svg"
   inkscape:version="1.1.2 (0a00cf5339, 2022-02-04)"
   xmlns:inkscape="http://www.inkscape.org/namespaces/inkscape"
   xmlns:sodipodi="http://sodipodi.sourceforge.net/DTD/sodipodi-0.dtd"
   xmlns="http://www.w3.org/2000/svg"
   xmlns:svg="http://www.w3.org/2000/svg">
  <defs
     id="defs10" />
  <sodipodi:namedview
     id="namedview8"
     pagecolor="#ffffff"
     bordercolor="#666666"
     borderopacity="1.0"
     inkscape:pageshadow="2"
     inkscape:pageopacity="0.0"
     inkscape:pagecheckerboard="0"
     inkscape:document-units="pt"
     showgrid="false"
     inkscape:zoom="0.46"
     inkscape:cx="853.26087"
     inkscape:cy="848.91304"
     inkscape:window-width="1920"
     inkscape:window-height="1016"
     inkscape:window-x="0"
     inkscape:window-y="0"
     inkscape:window-maximized="1"
     inkscape:current-layer="svg6" />
  <path
     d="M 488.6,1.6 C 469.3,5.9 451.9,16.9 404,55 c -25.7,20.4 -32.8,25.6 -43.8,31.9 -11.7,6.8 -19.1,9.5 -61.5,22.6 -44,13.6 -46.6,14.5 -61.2,21.2 -20,9.2 -28.6,16.4 -39.2,32.5 -8,12.1 -13.7,23.5 -30.6,61.3 -26.4,58.9 -24.7,56.4 -71.2,103.5 -51.3,51.9 -57.4,60.1 -61.9,82.5 -1.5,7.9 -3.7,32.9 -3,34.9 0.2,0.6 0.8,9.9 1.4,20.6 0.5,10.7 1.7,28.7 2.5,40 3.3,45 2.1,52.8 -16.4,110 C 4,662.8 -0.8,684.5 0.3,701.7 1.5,720 8.2,734.6 39.2,786 c 12.4,20.6 24.4,41.1 26.5,45.5 7.7,15.4 11.3,28.9 18.2,69 8.2,47.1 13.5,68.6 20.8,83.5 4.1,8.2 6,10.8 14.7,19.5 12.8,12.7 21.2,18.6 62.5,43.5 59.1,35.8 55.5,32.7 94.6,83 24.7,31.9 30.7,39 43.6,51.5 11.1,10.8 18.8,16.1 29,19.9 5.5,2.1 49,11.3 61.9,13.1 2.4,0.3 14.8,1 27.5,1.5 45.7,1.8 65.9,6.9 108.5,27.5 31.3,15.1 56.6,25.2 73,29.1 10.5,2.5 25.1,2.9 35.5,0.9 15.3,-2.8 39.2,-12.2 80.9,-31.5 41.9,-19.4 54.4,-23.1 83.6,-24.5 20.2,-1 64,-4.5 70.5,-5.6 6.8,-1.1 24.8,-5.8 37.3,-9.6 20.6,-6.3 34.2,-18.8 68.4,-62.7 36.9,-47.3 44.2,-55.4 60.3,-66.7 4.4,-3.1 20.6,-13.2 36,-22.4 49.4,-29.6 63.2,-39.4 73.4,-52.3 14.1,-17.6 18.4,-31.7 30.1,-97.2 10.2,-57.2 11,-59.2 40.9,-108.4 35.6,-58.5 41.3,-70.8 42.8,-92.7 1.1,-16 -3.5,-36.7 -18.5,-83.4 -11,-34.1 -13.7,-43.5 -15.7,-54.9 -2,-11.5 -2,-42.4 0,-69.1 3.5,-47.6 2.9,-74.8 -1.9,-90.1 -5.5,-17.4 -17.5,-32.3 -61.1,-75.9 -44.4,-44.4 -43.8,-43.6 -66.5,-94.5 -23.7,-53.1 -32.2,-68.9 -43.9,-81.2 -15,-16 -27.7,-21.7 -94.1,-42.4 -38.6,-12 -50.4,-16.5 -61.2,-23 -7.3,-4.4 -24.2,-17.1 -48.3,-36.3 -34.6,-27.5 -54,-40.3 -70,-45.8 -7.4,-2.5 -9.1,-2.7 -24,-2.7 -18.5,0 -23.5,0.6 -64,8 -52.6,9.7 -58.6,10.6 -69,10.6 -12.8,0.1 -27.1,-2 -62,-8.7 -50.4,-9.8 -76,-12.3 -90.9,-8.9 z"/>
</svg>
